#!OML:ASF F:\VICON\USERDATA\INSTALL\rory3\rory3.ASF
:FULLY-SPECIFIED
:DEGREES
255
root 0.589628 17.6999 16.3055 0.132839 -5.27105 -6.98218
lowerback 10.7818 2.14384 5.95137
upperback -0.741806 3.78219 2.31927
thorax -6.61908 1.68149 -1.50746
lowerneck -17.8753 -2.75586 -1.1582
upperneck 25.648 -3.26527 -1.05031
head 11.2927 -1.72537 -0.673044
rclavicle 2.76186e-014 -1.2921e-015
rhumerus -18.6412 -11.6374 -81.0772
rradius 34.8393
rwrist -3.15713
rhand -17.8282 22.267
rfingers 7.12502
rthumb 8.4361 -7.54452
lclavicle 2.76186e-014 -1.2921e-015
lhumerus -37.6078 5.03794 81.9629
lradius 23.7674
lwrist 5.86625
lhand -25.6485 18.9181
lfingers 7.12502
lthumb 0.885199 48.896
rfemur 8.87421 6.33181 33.8026
rtibia 27.4316
rfoot -19.6293 -4.63369
rtoes -5.83925
lfemur -26.1437 -3.8134 -11.9346
ltibia 17.0334
lfoot -3.52905 4.17666
ltoes -0.981966
256
root 0.599283 17.7081 16.4985 -0.0318653 -5.38264 -6.96262
lowerback 10.9628 2.21965 5.8802
upperback -0.78411 3.88881 2.28416
thorax -6.76204 1.73008 -1.53121
lowerneck -17.5562 -2.79362 -1.08551
upperneck 25.4337 -3.3596 -1.00019
head 11.1482 -1.7559 -0.672117
rclavicle -1.41634e-014 1.39149e-014
rhumerus -19.0392 -12.0945 -81.0495
rradius 34.9584
rwrist -2.86342
rhand -17.6127 22.6256
rfingers 7.12502
rthumb 8.64407 -7.17743
lclavicle -1.41634e-014 1.39149e-014
lhumerus -37.727 4.89259 81.899
lradius 23.6717
lwrist 5.82796
lhand -25.4409 19.6993
lfingers 7.12502
lthumb 1.08572 49.6763
rfemur 9.13891 6.39335 33.7626
rtibia 28.368
rfoot -18.9604 -4.52162
rtoes -6.82802
lfemur -26.2408 -3.5666 -12.1628
ltibia 18.4142
lfoot -1.20001 2.27578
ltoes -4.68055
257
root 0.622307 17.7178 16.6982 -0.166991 -5.37539 -6.7262
lowerback 10.8863 2.23387 5.76152
upperback -0.80796 3.87971 2.16985
thorax -6.74365 1.72827 -1.58092
lowerneck -17.3316 -2.83057 -1.04031
upperneck 25.493 -3.46165 -0.888272
head 11.1275 -1.78411 -0.65079
rclavicle 6.48535e-015 -2.17669e-014
rhumerus -19.5804 -12.1689 -81.0272
rradius 35.2623
rwrist -2.84582
rhand -17.4019 22.5306
rfingers 7.12502
rthumb 8.84748 -7.26391
lclavicle 6.48535e-015 -2.17669e-014
lhumerus -37.7722 4.85509 81.8796
lradius 23.6028
lwrist 6.1019
lhand -25.0241 20.8643
lfingers 7.12502
lthumb 1.4883 50.8388
rfemur 9.30456 6.25688 33.3935
rtibia 29.4787
rfoot -18.2518 -4.28747
rtoes -8.40378
lfemur -26.2992 -3.46656 -12.6426
ltibia 19.6504
lfoot -0.536238 0.21567
ltoes -6.17441
258
root 0.641424 17.7221 16.9013 -0.450432 -5.34786 -6.19945
lowerback 10.9328 2.22888 5.2209
upperback -0.806347 3.79735 2.04341
thorax -6.79754 1.70403 -1.40304
lowerneck -16.9983 -2.83537 -0.970398
upperneck 25.523 -3.50312 -0.858893
head 11.0722 -1.79353 -0.652291
rclavicle -1.32192e-014 6.16232e-015
rhumerus -19.8232 -12.4139 -80.9722
rradius 34.9689
rwrist -2.49037
rhand -17.3977 22.5331
rfingers 7.12502
rthumb 8.85157 -7.2613
lclavicle -1.32192e-014 6.16232e-015
lhumerus -37.9556 5.17594 81.743
lradius 23.5467
lwrist 5.88969
lhand -25.1909 20.0462
lfingers 7.12502
lthumb 1.32719 50.0218
rfemur 9.52221 6.11042 32.7275
rtibia 30.8276
rfoot -17.4483 -3.87167
rtoes -9.21513
lfemur -26.1074 -3.66031 -13.3224
ltibia 20.7706
lfoot -0.291369 -0.619475
ltoes -4.38365
259
root 0.65032 17.7272 17.0987 -0.728012 -5.26951 -5.71664
lowerback 11.1049 2.21753 4.64459
upperback -0.745969 3.70824 1.94672
thorax -6.8637 1.67874 -1.17687
lowerneck -17.0369 -2.83814 -1.06319
upperneck 25.6015 -3.52222 -0.709778
head 11.1146 -1.79204 -0.587295
rclavicle -1.22315e-014 -6.36111e-015
rhumerus -19.7871 -13.0116 -80.9668
rradius 34.4525
rwrist -1.95068
rhand -17.4223 22.6691
rfingers 7.12502
rthumb 8.8278 -7.1263
lclavicle -1.22315e-014 -6.36111e-015
lhumerus -37.839 5.57272 81.5388
lradius 23.2784
lwrist 5.55385
lhand -25.533 19.0177
lfingers 7.12502
lthumb 0.996784 48.9951
rfemur 9.47939 6.1214 32.2184
rtibia 32.4648
rfoot -16.3652 -3.34037
rtoes -8.2976
lfemur -25.8409 -3.63515 -13.958
ltibia 21.7225
lfoot -0.134915 -1.42883
ltoes -2.8799
260
root 0.656524 17.7352 17.3054 -1.04572 -5.22427 -5.4115
lowerback 11.2239 2.24323 4.246
upperback -0.697359 3.6917 1.90759
thorax -6.90146 1.68414 -0.997916
lowerneck -17.1266 -2.85138 -1.22889
upperneck 25.7699 -3.55131 -0.501625
head 11.2041 -1.79405 -0.491996
rclavicle 5.00844e-014 8.44835e-015
rhumerus -19.9906 -13.4701 -80.8469
rradius 34.0336
rwrist -1.77073
rhand -17.8227 22.4304
rfingers 7.12502
rthumb 8.44144 -7.38088
lclavicle 5.00844e-014 8.44835e-015
lhumerus -37.5466 6.01873 81.3264
lradius 22.6666
lwrist 5.10829
lhand -25.721 18.6155
lfingers 7.12502
lthumb 0.815246 48.5937
rfemur 9.23937 6.12944 31.8984
rtibia 34.3873
rfoot -15.0088 -2.86056
rtoes -7.82755
lfemur -25.3688 -3.4226 -14.4412
ltibia 22.5211
lfoot 0.297871 -2.7495
ltoes -1.89692
261
root 0.665897 17.746 17.5097 -1.28125 -5.18005 -5.1693
lowerback 11.2343 2.26524 3.99789
upperback -0.738894 3.68416 1.81823
thorax -6.96081 1.68621 -0.953896
lowerneck -16.8908 -2.91051 -1.27516
upperneck 25.8588 -3.65457 -0.403952
head 11.1947 -1.83373 -0.460744
rclavicle 5.30476e-014 1.58034e-014
rhumerus -20.3832 -14.2175 -80.7344
rradius 33.5239
rwrist -1.41352
rhand -18.3077 21.9805
rfingers 7.12502
rthumb 7.97338 -7.84911
lclavicle 5.30476e-014 1.58034e-014
lhumerus -37.4727 6.25813 81.0636
lradius 22.1986
lwrist 4.77516
lhand -25.9353 17.6333
lfingers 7.12502
lthumb 0.608188 47.6122
rfemur 8.71144 6.00906 31.544
rtibia 36.5041
rfoot -13.3098 -2.36165
rtoes -7.79175
lfemur -24.9128 -3.30543 -14.8586
ltibia 23.2608
lfoot 0.690252 -3.80553
ltoes 0.233892
262
root 0.68237 17.7602 17.7098 -1.37777 -4.95924 -4.71366
lowerback 11.0614 2.27108 3.62845
upperback -0.728412 3.61979 1.62905
thorax -6.86313 1.66755 -0.927804
lowerneck -16.6807 -2.96565 -1.14204
upperneck 25.7063 -3.76291 -0.441056
head 11.0921 -1.87603 -0.506392
rclavicle -3.63403e-016 -1.40143e-014
rhumerus -20.6758 -15.1713 -80.6451
rradius 33.1465
rwrist -0.797553
rhand -18.4507 21.6148
rfingers 7.12502
rthumb 7.83533 -8.22005
lclavicle -3.63403e-016 -1.40143e-014
lhumerus -37.2692 6.35344 80.869
lradius 21.9158
lwrist 4.62185
lhand -26.3074 17.7535
lfingers 7.12502
lthumb 0.24886 47.7331
rfemur 7.93728 5.51305 30.7436
rtibia 38.7
rfoot -10.9797 -1.54346
rtoes -7.89034
lfemur -24.6338 -3.08933 -15.638
ltibia 24.0266
lfoot 0.572049 -4.25579
ltoes -0.189582
263
root 0.707387 17.7754 17.9204 -1.4397 -4.74046 -4.18788
lowerback 10.7801 2.26967 3.3191
upperback -0.680841 3.54779 1.42253
thorax -6.65986 1.64494 -0.945957
lowerneck -16.8695 -2.9869 -1.1852
upperneck 25.8382 -3.81214 -0.32531
head 11.1829 -1.88628 -0.469452
rclavicle 4.48865e-014 1.83876e-014
rhumerus -20.9247 -15.9398 -80.5231
rradius 32.7907
rwrist -0.358281
rhand -18.5926 21.2237
rfingers 7.12502
rthumb 7.6984 -8.61622
lclavicle 4.48865e-014 1.83876e-014
lhumerus -37.028 6.3376 80.8019
lradius 21.7525
lwrist 4.69797
lhand -26.136 17.8541
lfingers 7.12502
lthumb 0.41442 47.8335
rfemur 7.09599 4.88947 29.736
rtibia 40.9339
rfoot -7.98898 -0.535264
rtoes -7.63398
lfemur -24.2876 -2.88855 -16.5404
ltibia 24.7566
lfoot 0.0578372 -4.06688
ltoes -3.13532
264
root 0.733395 17.7884 18.1249 -1.57615 -4.54092 -4.0133
lowerback 10.6984 2.17006 3.34879
upperback -0.685253 3.40945 1.334
thorax -6.61584 1.57557 -1.02991
lowerneck -16.8579 -2.93332 -1.22479
upperneck 25.9917 -3.75391 -0.229703
head 11.2415 -1.85106 -0.421326
rclavicle 1.03927e-014 -4.32357e-015
rhumerus -21.2648 -16.7502 -80.3877
rradius 32.1061
rwrist 0.39547
rhand -19.024 21.6803
rfingers 7.12502
rthumb 7.28195 -8.17443
lclavicle 1.03927e-014 -4.32357e-015
lhumerus -36.9722 6.66306 80.5505
lradius 21.5142
lwrist 4.64817
lhand -25.9714 16.9868
lfingers 7.12502
lthumb 0.573374 46.9658
rfemur 6.25841 4.31161 29.138
rtibia 43.1144
rfoot -4.87603 0.435928
rtoes -4.99626
lfemur -23.8786 -2.60079 -17.0666
ltibia 25.4912
lfoot -0.490368 -4.21688
ltoes -3.8728
265
root 0.753108 17.8037 18.3225 -1.7599 -4.45211 -3.84611
lowerback 10.7363 2.10412 3.29516
upperback -0.667134 3.31142 1.26824
thorax -6.6206 1.5283 -1.05478
lowerneck -16.7005 -2.91472 -1.18955
upperneck 25.9598 -3.74617 -0.208457
head 11.1979 -1.8425 -0.415233
rclavicle -1.34816e-014 -1.17283e-014
rhumerus -21.6891 -17.6564 -80.2119
rradius 31.5922
rwrist 0.995372
rhand -18.667 22.3284
rfingers 7.12502
rthumb 7.62659 -7.51413
lclavicle -1.34816e-014 -1.17283e-014
lhumerus -36.8913 6.95171 80.3098
lradius 21.2593
lwrist 4.43512
lhand -25.7981 16.5263
lfingers 7.12502
lthumb 0.740734 46.5047
rfemur 5.33516 3.88421 28.6346
rtibia 45.2481
rfoot -2.18999 1.2072
rtoes -1.77087
lfemur -23.3392 -2.29751 -17.5296
ltibia 26.1406
lfoot -0.851798 -4.93451
ltoes -1.88278
266
root 0.768048 17.8261 18.5219 -1.94834 -4.7587 -3.90993
lowerback 10.8232 2.18337 3.37308
upperback -0.622337 3.42974 1.27688
thorax -6.61382 1.58398 -1.11072
lowerneck -16.839 -2.91369 -1.16505
upperneck 26.0366 -3.76124 -0.174858
head 11.2546 -1.84165 -0.412725
rclavicle -3.52781e-014 8.64713e-015
rhumerus -22.037 -18.3139 -80.076
rradius 31.2473
rwrist 1.10618
rhand -18.0778 22.1805
rfingers 7.12502
rthumb 8.19523 -7.64061
lclavicle -3.52781e-014 8.64713e-015
lhumerus -36.7648 7.36765 79.9879
lradius 21.1042
lwrist 3.70421
lhand -25.6902 16.1287
lfingers 7.12502
lthumb 0.844956 46.1068
rfemur 4.30452 3.79688 28.4254
rtibia 47.3465
rfoot 0.669428 2.04301
rtoes 1.50936
lfemur -22.6569 -1.82163 -17.6675
ltibia 26.6517
lfoot -1.34265 -5.43316
ltoes -0.0692302
267
root 0.790917 17.8521 18.7139 -2.09556 -4.96011 -3.75333
lowerback 10.8853 2.25302 3.37707
upperback -0.60064 3.52 1.20396
thorax -6.61733 1.6267 -1.20605
lowerneck -17.0316 -2.94678 -1.13254
upperneck 26.1614 -3.80528 -0.217758
head 11.3386 -1.8622 -0.445248
rclavicle 8.95152e-015 4.12478e-015
rhumerus -22.2961 -19.0485 -79.8943
rradius 30.7484
rwrist 1.25974
rhand -17.8157 21.7048
rfingers 7.12502
rthumb 8.44819 -8.10623
lclavicle 8.95152e-015 4.12478e-015
lhumerus -36.658 7.65755 79.7945
lradius 21.1735
lwrist 3.11029
lhand -25.3909 15.9461
lfingers 7.12502
lthumb 1.134 45.9229
rfemur 3.1301 3.63987 27.9243
rtibia 49.5109
rfoot 3.40628 3.08634
rtoes 5.73192
lfemur -21.9705 -1.59539 -18.0565
ltibia 27.0003
lfoot -2.02298 -5.26531
ltoes -0.0882416
268
root 0.812692 17.8743 18.8997 -2.29247 -4.9694 -3.27731
lowerback 10.9354 2.21627 3.02321
upperback -0.5688 3.41828 1.08647
thorax -6.62863 1.5872 -1.11705
lowerneck -16.9274 -2.9198 -1.2135
upperneck 26.1494 -3.75293 -0.188225
head 11.3158 -1.84366 -0.411235
rclavicle -2.15161e-014 -1.25234e-014
rhumerus -22.6986 -19.5272 -79.7583
rradius 30.4183
rwrist 1.50956
rhand -17.6713 21.5259
rfingers 7.12502
rthumb 8.58756 -8.27948
lclavicle -2.15161e-014 -1.25234e-014
lhumerus -36.7927 7.39925 79.9509
lradius 21.6491
lwrist 3.7016
lhand -25.3374 17.267
lfingers 7.12502
lthumb 1.18572 47.2434
rfemur 1.96737 3.42876 27.1248
rtibia 51.7373
rfoot 5.51765 3.72542
rtoes 11.9425
lfemur -21.1998 -1.59039 -18.8029
ltibia 27.2353
lfoot -2.59206 -4.8921
ltoes -0.466624
269
root 0.825464 17.8917 19.0845 -2.49791 -5.26996 -2.88187
lowerback 11.1023 2.30101 2.67811
upperback -0.536442 3.48096 0.936397
thorax -6.69673 1.62593 -1.09878
lowerneck -16.9079 -2.88093 -1.20579
upperneck 26.1781 -3.72989 -0.0877746
head 11.3248 -1.81976 -0.372536
rclavicle 7.90635e-014 1.2424e-015
rhumerus -23.1258 -20.088 -79.7145
rradius 30.1887
rwrist 1.77063
rhand -17.3655 21.1384
rfingers 7.12502
rthumb 8.88263 -8.65463
lclavicle 7.90635e-014 1.2424e-015
lhumerus -36.7976 6.753 80.1261
lradius 22.0455
lwrist 4.55758
lhand -25.358 18.4036
lfingers 7.12502
lthumb 1.16579 48.3802
rfemur 0.773001 3.50116 26.5097
rtibia 54.0425
rfoot 6.86197 4.02766
rtoes 16.8844
lfemur -20.3533 -1.4749 -19.3853
ltibia 27.3646
lfoot -2.86531 -4.50398
ltoes 0.272029
